<svg id="Layer_1" data-name="Layer 1" xmlns="http://www.w3.org/2000/svg" viewBox="0 0 392 488"><polygon points="195.5 0 0 243.5 196.12 488 392 244 195.5 0"/><path d="M186.3,405.84c.45-8.08,2.34-11.74,9.21-18.21a44.46,44.46,0,0,1,21.06-10.82c2.65-.56,4.69-1.48,5.14-2.18,1.13-2,.9-108.4-.23-109.66-.53-.57-4-3.45-7.7-6.33-27.41-21.16-44.24-46-52-76.55a145.35,145.35,0,0,1-4.68-25.45c-1.21-11.25-1.44-18-.53-19.26.68-1.13,19.71-1.27,21.06-.14.61.42,1,2.39,1,5.06,0,7.94,1.73,22.64,3.85,33.11,3.47,16.87,12.3,36.41,22.35,49.56,6.19,8.08,22,23.2,24.31,23.2,1.58,0,11.55-8.23,13-10.69.61-1,.08-2-2.19-4.92-17-21.79-25.52-45.13-28.84-78.94-1.13-11.74-1-15.68.61-16.38,1.43-.7,17-1.06,19-.49,1.06.35,1.36,1.68,1.82,9.21.75,13.28,3.17,29,5.81,37.18,2.72,8.65,6.49,18.42,8.83,22.85,3.63,7,8.38,14.06,9.52,14.06.45,0,1.2-.71,1.66-1.62s2.64-4.57,4.75-8.29c9.74-17,15.63-38.95,17.14-64.26.3-5,.83-8.64,1.36-8.92s5.14-.57,10.35-.57c8.07,0,9.66.22,10,1.13.68,1.69.53,11.81-.3,18.91C298,187.64,289.59,210,273.5,231.37a31.3,31.3,0,0,0-3.55,5.34c0,1.33,11.93,11.46,13.52,11.46,2.26,0,14.95-12.09,22.57-21.44,9.67-11.95,18.5-29.74,22.43-45.06.68-2.68,1.36-5.49,1.58-6.26,1.21-4.36,4.08-27.91,4.08-33.53s-.3-5.49,10.5-5.49c6.41,0,9.89.29,10.49.85,1.29,1.19,1.13,12.09-.22,23.55C349.76,203.46,332.09,234,297.51,260a67.16,67.16,0,0,0-6.64,5.41c-.3.56-.45,25.52-.38,55.6l.23,54.62,5.81,1.55c9.06,2.46,14.05,5,19.71,10.26,6.72,6.26,9.06,10.9,9.44,18.77L326,412H186ZM260,380.32a59.44,59.44,0,0,1,9.74-3.3l5.51-1.27.15-54.83c.15-30.15.15-55.18,0-55.53s-1-1.2-2-1.76-5.06-3.65-9.06-6.82-7.63-5.83-8-5.83-3.62,2.32-7,5.13-7.62,6.12-9.44,7.38l-3.17,2.39.15,54.83.23,54.9,4.91,1.27a71.89,71.89,0,0,1,9.06,3.3l4.38,2.18A36.3,36.3,0,0,0,260,380.32Z" transform="translate(-60 -12)" style="fill:#49f015"/></svg>
