<?xml version="1.0" encoding="utf-8"?>
<!-- Generator: Adobe Illustrator 25.0.0, SVG Export Plug-In . SVG Version: 6.00 Build 0)  -->
<svg version="1.1" id="Layer_1" xmlns="http://www.w3.org/2000/svg" xmlns:xlink="http://www.w3.org/1999/xlink" x="0px" y="0px"
	 viewBox="0 0 650 300" style="enable-background:new 0 0 650 300;" xml:space="preserve">
<g>
	<g style="enable-background:new    ;">
		<path d="M214.3,219.9c-2.5,0.8-5,1.2-7.7,1.2c-3.5,0-6.8-0.7-9.8-2.1s-5.7-3.2-8-5.5c-2.3-2.3-4.1-5-5.4-8.2
			c-1.3-3.1-2-6.5-2-10.1c0-3.5,0.7-6.9,2-10.1c1.3-3.2,3.1-5.9,5.4-8.3c2.3-2.3,5-4.2,8-5.6s6.3-2.1,9.8-2.1c2.6,0,5.2,0.4,7.7,1.2
			c2.5,0.8,4.8,2,6.9,3.6l-4.1,6.8l-0.5-2.1c-3-2-6.3-2.9-9.9-2.9c-2.6,0-5.1,0.5-7.3,1.5c-2.3,1-4.3,2.4-6,4.2
			c-1.7,1.8-3.1,3.8-4.1,6.2c-1,2.3-1.5,4.9-1.5,7.5c0,2.7,0.5,5.2,1.5,7.5c1,2.3,2.3,4.4,4.1,6.2c1.7,1.8,3.7,3.2,6,4.2
			c2.3,1,4.7,1.5,7.3,1.5c3.6,0,6.9-1,9.9-2.9l0.5-2.2l4.1,6.9C219.1,217.9,216.8,219.1,214.3,219.9z"/>
		<path d="M254.9,218.5l3.2,2.6h-11.8l1.6-1.9l-11.7-20.3c-1.1,0.3-2.2,0.5-3.3,0.5v19.3l2.3,2.4h-11l2.3-2.4v-47l-2.3-2.5h7.7
			c2,0,3.9,0.4,5.7,1.2c1.8,0.8,3.3,1.9,4.7,3.2s2.4,3,3.2,4.8c0.8,1.8,1.2,3.8,1.2,5.9c0,2.1-0.4,4.2-1.3,6.2
			c-0.9,2-2.1,3.7-3.7,5.1L254.9,218.5z M233,192.8c2.1-0.2,3.8-1.2,5.3-2.8c1.5-1.6,2.2-3.5,2.2-5.7c0-2.1-0.7-4-2.2-5.6
			c-1.5-1.6-3.2-2.6-5.3-2.9V192.8z"/>
		<path d="M292.2,190.7l-2.3-2.3h-19.9v26.2h21.5l2.4-2.5v9h-32.5l2.3-2.4v-47l-2.3-2.5h27.3v9.2l-2.5-2.7h-16.2v6h19.9l2.3-2.4
			V190.7z"/>
		<path d="M327.9,190.7l-2.3-2.3h-19.9v26.2h21.5l2.4-2.5v9H297l2.3-2.4v-47l-2.3-2.5h27.3v9.2l-2.5-2.7h-16.2v6h19.9l2.3-2.4V190.7
			z"/>
		<path d="M363.8,218.2c0.7,0.6,1.3,1.1,1.7,1.4c0.4,0.3,0.8,0.6,1.2,0.9c0.4,0.3,0.6,0.4,0.7,0.5h-11.8l1.2-1.6l-15.5-21.7v20.9
			l2.3,2.4h-11l2.3-2.4v-47l-2.3-2.5h11l-2.3,2.5V184l11-13.3l-1.2-1.6h11.8c-0.5,0.2-1.3,0.9-2.2,1.9c-1,1-2,2.2-3.2,3.6
			c-1.2,1.4-2.5,2.9-3.8,4.5c-1.3,1.6-2.6,3.2-3.8,4.7c-1.2,1.5-2.3,2.9-3.3,4.1c-1,1.2-1.7,2.1-2.2,2.7L363.8,218.2z"/>
		<path d="M416.4,189.7c1.7,1.8,3,3.8,3.9,6c0.9,2.2,1.4,4.6,1.4,7.1c0,2.5-0.5,4.9-1.4,7.1c-1,2.2-2.2,4.2-3.8,5.8s-3.5,3-5.7,3.9
			c-2.2,1-4.5,1.5-7,1.5c-2.6,0-5-0.5-7.2-1.6c-2.3-1-4.2-2.5-6-4.4c0.8-0.3,1.5-0.9,2-1.9c0.5-0.9,0.7-1.7,0.7-2.1v-39.4l-2.3-2.5
			h11.6c2,0,3.9,0.4,5.7,1.2c1.8,0.8,3.4,1.9,4.7,3.3c1.3,1.4,2.4,3,3.2,4.9c0.8,1.9,1.2,3.8,1.2,5.9
			C417.3,186.4,417,188.1,416.4,189.7z M409.7,188.9c0.8-1.4,1.2-2.9,1.2-4.4c0-1.2-0.2-2.3-0.7-3.3c-0.4-1.1-1.1-2-1.8-2.8
			c-0.8-0.8-1.7-1.4-2.7-1.9c-1-0.5-2.1-0.7-3.2-0.7h-2.9v13.1H409.7z M399.6,195.5v18.3c1.3,0.5,2.7,0.8,4.2,0.8
			c1.6,0,3.1-0.3,4.5-0.9c1.4-0.6,2.6-1.4,3.7-2.5c1.1-1.1,1.9-2.3,2.5-3.7c0.6-1.4,0.9-3,0.9-4.6c0-2.8-0.8-5.2-2.5-7.3H399.6z"/>
		<path d="M433.5,218.7l2.3,2.4h-11l2.3-2.4v-47l-2.3-2.5h11l-2.3,2.5V218.7z"/>
		<path d="M444.6,215.7c1.8,0,3.6-0.4,5.2-1.1c1.6-0.7,3-1.7,4.2-2.9c1.2-1.2,2.1-2.7,2.8-4.3c0.7-1.6,1-3.4,1-5.2
			c0-1.8-0.4-3.5-1.2-4.9c-0.8-1.5-1.7-2.9-2.6-4.4c-0.9-1.5-1.8-3-2.6-4.7c-0.8-1.6-1.2-3.6-1.2-5.9c0-1.9,0.3-3.7,1-5.4
			c0.7-1.7,1.5-3.2,2.7-4.6c1.1-1.3,2.5-2.5,4-3.4c1.5-0.9,3.2-1.6,5-1.9l0.6-2l2.1,0.6l-3.7,12.3l-2.1-0.7l0.7-2.4
			c-1.2,0.9-2.1,1.9-2.8,3.2c-0.7,1.3-1.1,2.7-1.1,4.2c0,1.6,0.4,3,1.2,4.4c0.8,1.3,1.7,2.7,2.6,4.2c0.9,1.5,1.8,3.1,2.6,4.9
			c0.8,1.8,1.2,3.9,1.2,6.4c0,2.7-0.5,5.3-1.6,7.8c-1,2.4-2.4,4.6-4.2,6.4c-1.8,1.8-3.9,3.3-6.2,4.3c-2.4,1.1-4.9,1.6-7.6,1.6
			c-0.5,0-0.9,0-1.4,0c-0.4,0-0.9-0.1-1.4-0.1l-0.6,2.2l-2.2-0.7l3.1-10.2l2.2,0.6l-0.5,1.6H444.6z"/>
		<path d="M501.4,169.2v9.2l-2.6-2.7h-10.5v42.9l2.3,2.4h-11l2.3-2.4v-42.9h-10.5l-2.6,2.7v-9.2H501.4z"/>
		<path d="M535.1,218.5l3.2,2.6h-11.8l1.6-1.9l-11.7-20.3c-1.1,0.3-2.2,0.5-3.3,0.5v19.3l2.3,2.4h-11l2.3-2.4v-47l-2.3-2.5h7.7
			c2,0,3.9,0.4,5.7,1.2c1.8,0.8,3.3,1.9,4.7,3.2s2.4,3,3.2,4.8c0.8,1.8,1.2,3.8,1.2,5.9c0,2.1-0.4,4.2-1.3,6.2
			c-0.9,2-2.1,3.7-3.7,5.1L535.1,218.5z M513.2,192.8c2.1-0.2,3.8-1.2,5.3-2.8c1.5-1.6,2.2-3.5,2.2-5.7c0-2.1-0.7-4-2.2-5.6
			c-1.5-1.6-3.2-2.6-5.3-2.9V192.8z"/>
		<path d="M560.7,169.2c3.4,0,6.7,0.7,9.8,2.1c3.1,1.4,5.7,3.2,8,5.6c2.3,2.3,4.1,5.1,5.4,8.3c1.3,3.2,2,6.5,2,10.1
			c0,3.6-0.7,7-2,10.1c-1.3,3.1-3.1,5.9-5.4,8.2c-2.3,2.3-5,4.2-8,5.5c-3.1,1.4-6.3,2.1-9.8,2.1c-3.5,0-6.8-0.7-9.8-2.1
			s-5.7-3.2-8-5.5c-2.3-2.3-4.1-5-5.4-8.2c-1.3-3.1-2-6.5-2-10.1c0-3.5,0.7-6.9,2-10.1c1.3-3.2,3.1-5.9,5.4-8.3c2.3-2.3,5-4.2,8-5.6
			S557.2,169.2,560.7,169.2z M560.7,175.8c-2.6,0-5.1,0.5-7.3,1.5c-2.3,1-4.3,2.4-6,4.2c-1.7,1.8-3.1,3.8-4.1,6.2
			c-1,2.3-1.5,4.9-1.5,7.5c0,2.7,0.5,5.2,1.5,7.5c1,2.3,2.3,4.4,4.1,6.2c1.7,1.8,3.7,3.2,6,4.2c2.3,1,4.7,1.5,7.3,1.5
			c2.6,0,5-0.5,7.3-1.5s4.3-2.4,6-4.2c1.7-1.8,3-3.8,4.1-6.2c1-2.3,1.5-4.9,1.5-7.5c0-2.7-0.5-5.2-1.5-7.5c-1-2.3-2.4-4.4-4.1-6.2
			c-1.7-1.8-3.7-3.2-6-4.2S563.2,175.8,560.7,175.8z"/>
	</g>
	<g style="enable-background:new    ;">
		<path d="M260.8,68.5c5.4,0,10.5,1.1,15.4,3.2c4.8,2.1,9,5,12.6,8.6c3.6,3.6,6.4,7.9,8.6,12.8c2.1,4.9,3.2,10.1,3.2,15.6
			c0,5.6-1.1,10.8-3.2,15.6c-2.1,4.9-5,9.1-8.6,12.7c-3.6,3.6-7.8,6.4-12.6,8.6c-4.8,2.1-9.9,3.2-15.4,3.2c-5.5,0-10.7-1.1-15.5-3.2
			c-4.8-2.1-9-5-12.6-8.6c-3.6-3.6-6.4-7.8-8.6-12.7c-2.1-4.9-3.2-10.1-3.2-15.6c0-5.5,1.1-10.7,3.2-15.6c2.1-4.9,5-9.2,8.6-12.8
			c3.6-3.6,7.8-6.5,12.6-8.6C250.1,69.5,255.3,68.5,260.8,68.5z M260.8,78.7c-4.1,0-8,0.8-11.6,2.3c-3.6,1.6-6.8,3.7-9.5,6.4
			c-2.7,2.7-4.8,5.9-6.4,9.6c-1.5,3.6-2.3,7.5-2.3,11.7c0,4.2,0.8,8,2.3,11.7c1.5,3.6,3.7,6.8,6.4,9.6c2.7,2.7,5.9,4.9,9.5,6.4
			c3.6,1.6,7.5,2.3,11.6,2.3c4,0,7.9-0.8,11.5-2.3c3.6-1.6,6.8-3.7,9.5-6.4c2.7-2.7,4.8-5.9,6.4-9.6c1.6-3.6,2.4-7.5,2.4-11.7
			c0-4.2-0.8-8-2.4-11.7c-1.6-3.6-3.7-6.8-6.4-9.6c-2.7-2.7-5.8-4.9-9.5-6.4C268.7,79.4,264.8,78.7,260.8,78.7z"/>
		<path d="M345.4,68.5c5.4,0,10.5,1.1,15.4,3.2c4.8,2.1,9,5,12.6,8.6c3.6,3.6,6.4,7.9,8.6,12.8c2.1,4.9,3.2,10.1,3.2,15.6
			c0,5.6-1.1,10.8-3.2,15.6c-2.1,4.9-5,9.1-8.6,12.7c-3.6,3.6-7.8,6.4-12.6,8.6c-4.8,2.1-9.9,3.2-15.4,3.2c-5.5,0-10.7-1.1-15.5-3.2
			c-4.8-2.1-9-5-12.6-8.6c-3.6-3.6-6.4-7.8-8.6-12.7c-2.1-4.9-3.2-10.1-3.2-15.6c0-5.5,1.1-10.7,3.2-15.6c2.1-4.9,5-9.2,8.6-12.8
			c3.6-3.6,7.8-6.5,12.6-8.6C334.7,69.5,339.8,68.5,345.4,68.5z M345.4,78.7c-4.1,0-8,0.8-11.6,2.3c-3.6,1.6-6.8,3.7-9.5,6.4
			c-2.7,2.7-4.8,5.9-6.4,9.6c-1.5,3.6-2.3,7.5-2.3,11.7c0,4.2,0.8,8,2.3,11.7c1.5,3.6,3.7,6.8,6.4,9.6c2.7,2.7,5.9,4.9,9.5,6.4
			c3.6,1.6,7.5,2.3,11.6,2.3c4,0,7.9-0.8,11.5-2.3c3.6-1.6,6.8-3.7,9.5-6.4c2.7-2.7,4.8-5.9,6.4-9.6c1.6-3.6,2.4-7.5,2.4-11.7
			c0-4.2-0.8-8-2.4-11.7c-1.6-3.6-3.7-6.8-6.4-9.6c-2.7-2.7-5.8-4.9-9.5-6.4C353.2,79.4,349.4,78.7,345.4,78.7z"/>
		<path d="M403.7,138.7h20.7l3.8-3.8V146l2.7,2.7h-40.8l3.6-3.7V72.3l-3.6-3.8h17.2l-3.6,3.8V138.7z"/>
		<path d="M444.8,140.4c2.9,0,5.6-0.5,8.2-1.6c2.6-1.1,4.8-2.6,6.6-4.5c1.8-1.9,3.3-4.2,4.3-6.7c1.1-2.5,1.6-5.2,1.6-8.1
			s-0.6-5.4-1.9-7.6s-2.6-4.5-4.1-6.8c-1.5-2.3-2.8-4.7-4.1-7.2s-1.9-5.6-1.9-9.1c0-2.9,0.5-5.7,1.5-8.4c1-2.6,2.4-5,4.2-7.1
			c1.8-2.1,3.9-3.8,6.3-5.3c2.4-1.5,5-2.4,7.9-2.9l1-3.1l3.4,1L471.9,82l-3.4-1.1l1.1-3.7c-1.9,1.3-3.4,3-4.5,5
			c-1.1,2-1.7,4.2-1.7,6.4c0,2.5,0.6,4.7,1.9,6.8c1.3,2.1,2.6,4.2,4.1,6.5c1.5,2.3,2.9,4.8,4.1,7.6c1.3,2.8,1.9,6.1,1.9,9.8
			c0,4.2-0.8,8.3-2.5,12c-1.6,3.8-3.9,7.1-6.7,9.9s-6.1,5.1-9.8,6.7c-3.7,1.6-7.7,2.5-11.9,2.5c-0.7,0-1.5,0-2.2-0.1
			c-0.7,0-1.4-0.1-2.2-0.2l-1,3.4l-3.5-1.1l4.9-15.7l3.5,1l-0.8,2.5H444.8z"/>
		<path d="M531.5,101.7l-3.6-3.5h-31.4v40.5h33.8l3.8-3.8v13.9h-51.2l3.6-3.7V72.3l-3.6-3.8h43v14.3l-3.9-4.1h-25.5V88h31.4l3.6-3.7
			V101.7z"/>
		<path d="M554.4,145.9l2,2.8h-17.2l4.1-3.3l20.2-39.4L546,72l-4.2-3.5h17.4l-2.2,3L569,95.2l12.2-23.6l-2.4-3.1H596l-3.8,3.3
			L554.4,145.9z"/>
	</g>
	<g>
		<g>
			<path d="M75.5,268.6c0.4-6.9,1.9-10,7.3-15.5c4.7-4.6,10.2-7.7,16.7-9.2c2.1-0.5,3.7-1.3,4.1-1.9c0.9-1.7,0.7-92.4-0.2-93.5
				c-0.4-0.5-3.2-2.9-6.1-5.4c-21.8-18-35.1-39.2-41.3-65.3c-2.3-9.7-2.7-12.2-3.7-21.7c-1-9.6-1.1-15.3-0.4-16.4
				c0.5-1,15.6-1.1,16.7-0.1c0.5,0.4,0.8,2,0.8,4.3c0,6.8,1.4,19.3,3.1,28.2c2.8,14.4,9.8,31,17.7,42.2c4.9,6.9,17.5,19.8,19.3,19.8
				c1.3,0,9.2-7,10.3-9.1c0.5-0.8,0.1-1.7-1.7-4.2c-13.5-18.6-20.3-38.5-22.9-67.3c-0.9-10-0.8-13.4,0.5-14
				c1.1-0.6,13.5-0.9,15.1-0.4c0.8,0.3,1.1,1.4,1.4,7.8c0.6,11.3,2.5,24.8,4.6,31.7c2.2,7.4,5.2,15.7,7,19.5c2.9,5.9,6.7,12,7.5,12
				c0.4,0,1-0.6,1.3-1.4c0.4-0.7,2.1-3.9,3.8-7.1c7.7-14.5,12.4-33.2,13.6-54.8c0.2-4.3,0.7-7.4,1.1-7.6c0.4-0.2,4.1-0.5,8.2-0.5
				c6.4,0,7.7,0.2,8,1c0.5,1.4,0.4,10.1-0.2,16.1c-2.9,26.6-9.6,45.7-22.4,63.9c-1.6,2.2-2.8,4.3-2.8,4.6c0,1.1,9.5,9.8,10.7,9.8
				c1.8,0,11.9-10.3,17.9-18.3c7.7-10.2,14.7-25.3,17.8-38.4c0.5-2.3,1.1-4.7,1.3-5.3c1-3.7,3.2-23.8,3.2-28.6s-0.2-4.7,8.3-4.7
				c5.1,0,7.9,0.2,8.3,0.7c1,1,0.9,10.3-0.2,20.1c-4.1,36.4-18.1,62.4-45.6,84.6c-2.6,2.1-5,4.2-5.3,4.6c-0.2,0.5-0.4,21.8-0.3,47.4
				l0.2,46.6l4.6,1.3c7.2,2.1,11.1,4.3,15.6,8.8c5.3,5.3,7.2,9.3,7.5,16l0.2,4.9h-55.6H75.3L75.5,268.6z M134.1,247.1
				c1.9-1,5.4-2.2,7.8-2.8l4.4-1.1l0.1-46.7c0.1-25.7,0.1-47.1,0-47.3c-0.1-0.4-0.8-1-1.6-1.5s-4-3.1-7.2-5.8c-3.2-2.8-6.1-5-6.4-5
				c-0.4,0-2.9,2-5.6,4.4c-2.7,2.3-6.1,5.2-7.5,6.3l-2.5,2v46.8l0.2,46.8l3.9,1.1c2.1,0.6,5.4,1.9,7.2,2.8c1.8,1,3.4,1.8,3.5,1.9
				C130.6,248.9,132.2,248.1,134.1,247.1z"/>
		</g>
	</g>
</g>
</svg>
